<?xml version="1.0" encoding="UTF-8"?>
<svg id="Layer_1" xmlns="http://www.w3.org/2000/svg" version="1.1" xmlns:xlink="http://www.w3.org/1999/xlink" viewBox="0 0 144 144">
  <!-- Generator: Adobe Illustrator 29.3.0, SVG Export Plug-In . SVG Version: 2.1.0 Build 146)  -->
  <defs>
    <style>
      .st0 {
        fill: #03bc85;
      }

      .st1 {
        fill: url(#radial-gradient);
      }
    </style>
    <radialGradient id="radial-gradient" cx="58.9" cy="60.9" fx="58.9" fy="60.9" r="63" gradientTransform="translate(0 146) scale(1 -1)" gradientUnits="userSpaceOnUse">
      <stop offset="0" stop-color="#4338a6"/>
      <stop offset=".5" stop-color="#019b84"/>
      <stop offset=".8" stop-color="#02b484"/>
      <stop offset="1" stop-color="#03bd85"/>
    </radialGradient>
  </defs>
  <path class="st1" d="M115.3,25V7.1c0-2.4-2.7-3.3-4.2-1.8l-17,17c-.6.6-1.2,1.8-1.2,2.7v15.2c0,.9-.3,1.8-1.2,2.7l-24.5,24.8c-.9.9-2.4,1.5-3.6.9-3-.9-6.3-1.2-9.5-.3-6.6,1.5-11.6,6.9-13.1,13.4-2.7,12.8,8.3,24.2,21.5,21.5,6.6-1.5,11.9-6.6,13.4-13.1.9-3.3.6-6.6-.3-9.6-.3-1.2,0-2.7.9-3.6,5.1-5.1,20.6-20.6,24.8-24.8.6-.6,1.5-1.2,2.7-1.2h15.2c.9,0,2.1-.3,2.7-1.2l16.7-16.7c1.5-1.5.6-4.2-1.8-4.2h-17.9c-2.1,0-3.6-1.8-3.6-3.9h0Z"/>
  <path class="st0" d="M91.1,76c1.8,5.7,1.8,11.9,0,18.5-3.6,12.8-14.6,22.7-27.7,24.5-22.7,3.3-41.8-15.8-38.5-38.5,1.8-13.1,11.6-24.2,24.5-27.7,6.6-1.8,12.8-1.5,18.5,0,.9.3,1.5,0,2.4-.6l11.9-11.9c1.2-1.2.9-3-.6-3.6-8.3-4.2-17.9-6-28-5.1-24.8,2.7-45.3,22.4-48.3,47.1-4.5,35.2,25.1,64.7,60.3,60.3,24.8-3,44.5-23.6,46.8-48.3.9-10.1-.9-19.7-5.1-28-.6-1.5-2.4-1.5-3.6-.6l-11.9,11.9c-.9.6-.9,1.5-.6,2.1h0Z"/>
</svg>