<?xml version="1.0" encoding="UTF-8"?>
<svg id="Layer_1" data-name="Layer 1" xmlns="http://www.w3.org/2000/svg" version="1.1" viewBox="0 0 150 150">
  <defs>
    <style>
      .cls-1 {
        fill: #161616;
      }

      .cls-1, .cls-2 {
        stroke-width: 0px;
      }

      .cls-2 {
        fill: #fff;
      }
    </style>
  </defs>
  <rect class="cls-2" y="0" width="150" height="150"/>
  <g>
    <path class="cls-1" d="M30,28.3c0-.6.5-1.1,1.1-1.1h8.4c.6,0,1.1.5,1.1,1.1v93.3c0,.6-.5,1.1-1.1,1.1h-8.4c-.6,0-1.1-.5-1.1-1.1V28.3Z"/>
    <path class="cls-1" d="M51.2,28.3c0-.6.5-1.1,1.1-1.1h8.4c.6,0,1.1.5,1.1,1.1v93.3c0,.6-.5,1.1-1.1,1.1h-8.4c-.6,0-1.1-.5-1.1-1.1V28.3Z"/>
    <path class="cls-1" d="M72.4,28.3c0-.6.5-1.1,1.1-1.1h8.4c.6,0,1.1.5,1.1,1.1v93.3c0,.6-.5,1.1-1.1,1.1h-8.4c-.6,0-1.1-.5-1.1-1.1V28.3Z"/>
    <path class="cls-1" d="M93.7,28.3c0-.6.5-1.1,1.1-1.1h8.4c.6,0,1.1.5,1.1,1.1v93.3c0,.6-.5,1.1-1.1,1.1h-8.4c-.6,0-1.1-.5-1.1-1.1V28.3Z"/>
    <path class="cls-1" d="M114.9,65.5c0-.6.5-1.1,1.1-1.1h8.4c.6,0,1.1.5,1.1,1.1v19c0,.6-.5,1.1-1.1,1.1h-8.4c-.6,0-1.1-.5-1.1-1.1v-19Z"/>
  </g>
</svg>