<svg xmlns="http://www.w3.org/2000/svg" viewBox="0 0 93.18 88.53">
  <g fill="#f59e0b" stroke="#000">
    <path stroke-width="2.54" d="m90.92 51.22-3.55-2.98c-.4-.34-.64-.84-.62-1.36a35.76 35.76 0 0 0-.03-2.96c-.02-.47.16-.93.49-1.27l3.6-3.71a2.8 2.8 0 0 0 .73-2.58c-.26-1.11-.55-2.2-.89-3.29a2.8 2.8 0 0 0-1.96-1.88l-4.5-1.18c-.5-.12-.92-.46-1.13-.93-.37-.78-.76-1.55-1.17-2.3a1.7 1.7 0 0 1-.12-1.38l1.47-4.32a2.8 2.8 0 0 0-.48-2.67 46.38 46.38 0 0 0-2.68-3.02 2.8 2.8 0 0 0-2.53-.8l-4.14.78c-.49.1-1-.03-1.4-.34a41 41 0 0 0-1.66-1.27c-.39-.28-.63-.72-.69-1.2l-.47-4.08a2.79 2.79 0 0 0-1.52-2.18A46.85 46.85 0 0 0 63 4.27a2.8 2.8 0 0 0-2.63.36L57.2 6.95c-.4.29-.9.4-1.38.3-.55-.13-1.11-.24-1.67-.34-.48-.08-.9-.37-1.16-.78l-2.17-3.48a2.8 2.8 0 0 0-2.25-1.31l-1.75-.06v-.01h-.46l-1.75.07c-.92.03-1.76.53-2.25 1.3L40.2 6.14c-.26.41-.68.7-1.16.78-.56.1-1.12.21-1.67.33-.48.1-.99 0-1.38-.3L32.8 4.64a2.8 2.8 0 0 0-2.63-.36 47.2 47.2 0 0 0-4.66 2.03A2.8 2.8 0 0 0 24 8.48l-.47 4.08c-.05.48-.3.92-.7 1.2-.56.4-1.11.83-1.66 1.27-.39.31-.9.44-1.4.34l-4.13-.78a2.8 2.8 0 0 0-2.53.8c-.94.97-1.83 1.98-2.68 3.02a2.8 2.8 0 0 0-.48 2.67l1.47 4.32c.16.45.12.96-.11 1.38-.42.75-.81 1.52-1.18 2.3-.21.47-.63.8-1.12.93L4.5 31.2a2.8 2.8 0 0 0-1.97 1.88 43 43 0 0 0-.89 3.3c-.2.92.06 1.89.72 2.57l3.61 3.7c.33.35.51.8.5 1.28a37.12 37.12 0 0 0-.04 2.96c.02.52-.21 1.02-.62 1.36l-3.55 2.98a2.8 2.8 0 0 0-.94 2.66c.2 1.1.45 2.2.74 3.28.24.89.9 1.61 1.77 1.92l4.93 1.74c.44.15.8.49 1 .92.32.72.66 1.42 1.01 2.12.24.46.26 1 .05 1.48l-1.74 3.98c-.41.93-.28 2 .33 2.81.88 1.16 1.8 2.27 2.79 3.34.61.66 1.52.98 2.42.85l4.57-.63c.48-.06.97.07 1.35.38.56.48 1.14.94 1.73 1.38.4.3.65.77.69 1.27l.25 4.04c.06.96.61 1.83 1.47 2.28 1.42.75 2.9 1.43 4.4 2.03.88.35 1.87.22 2.64-.33l3.91-2.79a4.04 4.04 0 0 0 1.65-3.86l-.94-6.5a4.04 4.04 0 0 0-2.26-3.06A27.4 27.4 0 0 1 45.91 18.4l.45.01h.91a27.4 27.4 0 0 1 11.83 52.1 4.04 4.04 0 0 0-2.26 3.06l-.94 6.51a4.04 4.04 0 0 0 1.65 3.86l3.91 2.8c.77.54 1.76.67 2.64.32 1.51-.6 2.98-1.28 4.4-2.03a2.77 2.77 0 0 0 1.47-2.28l.26-4.04c.03-.5.27-.97.67-1.27.6-.44 1.18-.9 1.75-1.38.37-.3.86-.44 1.34-.38l4.57.63c.9.13 1.8-.19 2.42-.85a44.71 44.71 0 0 0 2.79-3.34c.6-.8.74-1.88.34-2.81l-1.75-3.98c-.2-.48-.2-1.02.05-1.48.36-.7.7-1.4 1.01-2.12.2-.43.56-.77 1-.92l4.93-1.74a2.8 2.8 0 0 0 1.77-1.92c.29-1.08.54-2.17.74-3.28.19-1-.17-2-.94-2.66"/>
    <path stroke-width="1.53" d="M52.76 77.27H40.42c-.7 0-1.28-.57-1.28-1.27 0-.7.58-1.27 1.28-1.27h12.34a1.27 1.27 0 0 1 0 2.54M52.22 82H40.96c-.7 0-1.27-.58-1.27-1.28 0-.7.57-1.27 1.27-1.27h11.26a1.27 1.27 0 0 1 0 2.54M51.22 86.9h-9.26c-.7 0-1.27-.57-1.27-1.28 0-.7.57-1.27 1.27-1.27h9.26a1.27 1.27 0 0 1 0 2.54"/>
  </g>
</svg>