<svg width="32" height="32" viewBox="0 0 32 32" fill="none" xmlns="http://www.w3.org/2000/svg">
    <path d="M16.238 17.7292C15.1724 18.8776 15.1724 20.7387 16.238 21.8872C17.3044 23.0347 19.0326 23.0347 20.0982 21.8872C21.1646 20.7387 21.1646 18.8776 20.0982 17.7292C19.0326 16.5816 17.3044 16.5816 16.238 17.7292ZM19.1238 20.8396C18.9984 20.9749 18.8494 21.0822 18.6854 21.1554C18.5214 21.2286 18.3456 21.2663 18.1681 21.2663C17.9906 21.2663 17.8148 21.2286 17.6508 21.1554C17.4868 21.0822 17.3378 20.9749 17.2124 20.8396C17.0869 20.7045 16.9873 20.5441 16.9194 20.3675C16.8515 20.191 16.8165 20.0018 16.8165 19.8107C16.8165 19.6196 16.8515 19.4304 16.9194 19.2538C16.9873 19.0773 17.0869 18.9169 17.2124 18.7818C17.3378 18.6465 17.4868 18.5392 17.6508 18.4659C17.8148 18.3927 17.9906 18.355 18.1681 18.355C18.3456 18.355 18.5214 18.3927 18.6854 18.4659C18.8494 18.5392 18.9984 18.6465 19.1238 18.7818C19.6515 19.3475 19.6515 20.2713 19.1238 20.8396ZM20.0531 3.26432L18.3804 5.06551C18.2229 5.23638 18.1345 5.46735 18.1345 5.70809C18.1345 5.94882 18.2229 6.1798 18.3804 6.35066L24.9106 13.3833C25.0693 13.5528 25.2838 13.648 25.5073 13.648C25.7309 13.648 25.9453 13.5528 26.104 13.3833L27.7765 11.5819C28.1036 11.2297 28.1036 10.6498 27.7765 10.2978L21.2434 3.2641C21.0852 3.09493 20.8712 3 20.6483 3C20.4253 3 20.2114 3.09515 20.0531 3.26432ZM8.33442 26.2819C8.47704 26.1276 8.55711 25.9188 8.55711 25.7011C8.55711 25.4834 8.47704 25.2746 8.33442 25.1203L7.48475 24.2044C7.34134 24.0509 7.14735 23.9647 6.94514 23.9647C6.74294 23.9647 6.54895 24.0509 6.40554 24.2044L4.64973 26.0964L4.64648 26.099L4.16487 25.5794C3.89817 25.2922 3.46409 25.2922 3.20003 25.5794C2.93332 25.8664 2.93332 26.3339 3.20003 26.6185L6.09375 29.7339C6.15701 29.8022 6.23214 29.8563 6.31485 29.8933C6.39756 29.9302 6.48622 29.9492 6.57576 29.9492C6.6653 29.9492 6.75396 29.9302 6.83667 29.8933C6.91938 29.8563 6.99452 29.8022 7.05778 29.7339C7.32184 29.4467 7.32448 28.9793 7.05778 28.6958L6.57536 28.1762L6.57861 28.1736L8.33442 26.2819Z" fill="#F5A800"/>
    <path d="M17.1824 8.43579L13.4666 12.4372C13.1365 12.7926 13.1365 13.378 13.4666 13.7335L15.7611 16.2038C17.3829 14.9469 19.6571 15.1024 21.1161 16.6748L22.9743 14.6734C23.3038 14.318 23.3038 13.7335 22.9743 13.378L18.3855 8.43579C18.3065 8.35066 18.2128 8.28313 18.1096 8.23706C18.0064 8.19098 17.8958 8.16727 17.784 8.16727C17.6723 8.16727 17.5617 8.19098 17.4585 8.23706C17.3553 8.28313 17.2613 8.35066 17.1824 8.43579ZM14.7963 17.2453L13.441 15.7858C13.1235 15.4441 12.6031 15.4441 12.2865 15.7858L7.50694 20.9352C7.35448 21.1005 7.26892 21.3241 7.26892 21.5572C7.26892 21.7902 7.35448 22.0138 7.50694 22.1792L10.2148 25.0956C10.3684 25.2598 10.576 25.352 10.7925 25.352C11.0089 25.352 11.2166 25.2598 11.3702 25.0956L14.4439 21.78C13.7941 20.3343 13.9107 18.5878 14.7963 17.2453Z" fill="#425CC7"/>
</svg>
